<svg class="main-svg" xmlns="http://www.w3.org/2000/svg" xmlns:xlink="http://www.w3.org/1999/xlink" width="700" height="500" style="" viewBox="0 0 700 500"><rect x="0" y="0" width="700" height="500" style="fill: rgb(255, 255, 255); fill-opacity: 1;"/><defs id="defs-7728fd"><g class="clips"><clipPath id="clip7728fdxyplot" class="plotclip"><rect width="426" height="320"/></clipPath><clipPath class="axesclip" id="clip7728fdx"><rect x="80" y="0" width="426" height="500"/></clipPath><clipPath class="axesclip" id="clip7728fdy"><rect x="0" y="100" width="700" height="320"/></clipPath><clipPath class="axesclip" id="clip7728fdxy"><rect x="80" y="100" width="426" height="320"/></clipPath></g><g class="gradients"/><g class="patterns"/></defs><g class="bglayer"/><g class="layer-below"><g class="imagelayer"/><g class="shapelayer"/></g><g class="cartesianlayer"><g class="subplot xy"><g class="layer-subplot"><g class="shapelayer"/><g class="imagelayer"/></g><g class="minor-gridlayer"><g class="x"/><g class="y"/></g><g class="gridlayer"><g class="x"/><g class="y"><path class="ygrid crisp" transform="translate(0,405.66)" d="M80,0h426" style="stroke: rgb(235, 240, 248); stroke-opacity: 1; stroke-width: 1px;"/><path class="ygrid crisp" transform="translate(0,303.40999999999997)" d="M80,0h426" style="stroke: rgb(235, 240, 248); stroke-opacity: 1; stroke-width: 1px;"/><path class="ygrid crisp" transform="translate(0,252.28)" d="M80,0h426" style="stroke: rgb(235, 240, 248); stroke-opacity: 1; stroke-width: 1px;"/><path class="ygrid crisp" transform="translate(0,201.15)" d="M80,0h426" style="stroke: rgb(235, 240, 248); stroke-opacity: 1; stroke-width: 1px;"/><path class="ygrid crisp" transform="translate(0,150.02)" d="M80,0h426" style="stroke: rgb(235, 240, 248); stroke-opacity: 1; stroke-width: 1px;"/></g></g><g class="zerolinelayer"><path class="yzl zl crisp" transform="translate(0,354.53)" d="M80,0h426" style="stroke: rgb(235, 240, 248); stroke-opacity: 1; stroke-width: 2px;"/></g><g class="layer-between"><g class="shapelayer"/><g class="imagelayer"/></g><path class="xlines-below"/><path class="ylines-below"/><g class="overlines-below"/><g class="xaxislayer-below"/><g class="yaxislayer-below"/><g class="overaxes-below"/><g class="overplot"><g class="xy" transform="translate(80,100)" clip-path="url(#clip7728fdxyplot)"><g class="violinlayer mlayer"><g class="trace violins" style="opacity: 0.6;"><path class="violin" d="M65.16,248.83L64.22,248.83Q63.72,249.13 63.43,249.26C63.09,249.42 62.7,249.55 62.3,249.69C61.87,249.84 61.39,249.98 60.94,250.12C60.49,250.26 60.01,250.4 59.59,250.55C59.22,250.69 58.81,250.8 58.57,250.98C58.4,251.11 58.2,251.27 58.2,251.41C58.2,251.55 58.4,251.71 58.57,251.84C58.81,252.02 59.22,252.13 59.58,252.27C59.99,252.42 60.48,252.56 60.93,252.7C61.38,252.84 61.86,252.98 62.29,253.13C62.69,253.27 63.08,253.4 63.42,253.56C63.71,253.69 63.99,253.83 64.22,253.99C64.41,254.12 64.57,254.27 64.7,254.42C64.81,254.56 64.89,254.7 64.96,254.85C65.02,254.99 65.06,255.14 65.09,255.28C65.12,255.42 65.13,255.57 65.14,255.71C65.15,255.85 65.15,256 65.15,256.14C65.15,256.28 65.16,256.43 65.16,256.57C65.16,256.71 65.16,256.85 65.16,256.99C65.16,257.13 65.16,257.28 65.16,257.42C65.16,257.56 65.16,257.71 65.16,257.85C65.16,257.99 65.16,258.14 65.16,258.28C65.16,258.42 65.16,258.57 65.16,258.71C65.16,258.85 65.16,259 65.16,259.14C65.16,259.28 65.16,259.43 65.16,259.57C65.16,259.71 65.16,259.86 65.16,260C65.16,260.14 65.16,260.29 65.16,260.43C65.16,260.57 65.16,260.72 65.16,260.86C65.16,261 65.16,261.15 65.16,261.29C65.16,261.43 65.16,261.58 65.16,261.72C65.16,261.86 65.16,262.01 65.16,262.15C65.16,262.29 65.16,262.44 65.16,262.58C65.16,262.72 65.16,262.87 65.16,263.01C65.16,263.15 65.16,263.3 65.16,263.44C65.16,263.58 65.16,263.73 65.16,263.87C65.16,264.01 65.16,264.16 65.16,264.3C65.16,264.44 65.16,264.59 65.16,264.73C65.16,264.87 65.16,265.02 65.16,265.16C65.16,265.3 65.16,265.45 65.16,265.59C65.16,265.73 65.16,265.88 65.16,266.02C65.16,266.16 65.16,266.31 65.16,266.45C65.16,266.59 65.16,266.74 65.16,266.88C65.16,267.02 65.16,267.17 65.16,267.31C65.16,267.45 65.16,267.6 65.16,267.74C65.16,267.88 65.16,268.03 65.16,268.17C65.16,268.31 65.16,268.46 65.16,268.6C65.16,268.74 65.15,268.89 65.15,269.03C65.14,269.17 65.14,269.32 65.13,269.46C65.12,269.6 65.11,269.74 65.07,269.88C65.03,270.02 64.98,270.17 64.9,270.31C64.81,270.46 64.69,270.61 64.53,270.74C64.33,270.9 64.07,271.04 63.77,271.17C63.39,271.34 62.91,271.47 62.39,271.6C61.74,271.76 60.97,271.9 60.16,272.03C59.18,272.19 58.08,272.32 56.93,272.46C55.62,272.61 54.19,272.75 52.73,272.89C51.15,273.04 49.46,273.18 47.78,273.32C46.03,273.47 44.22,273.61 42.43,273.75C40.64,273.89 38.82,274.03 37.04,274.18C35.31,274.32 33.57,274.46 31.9,274.61C30.32,274.75 28.75,274.89 27.3,275.04C26.01,275.18 24.69,275.3 23.63,275.47C22.8,275.6 21.74,275.64 21.44,275.9C21.31,276.02 21.23,276.21 21.3,276.33C21.46,276.6 22.69,276.63 23.59,276.76C24.86,276.94 26.56,277.06 28.23,277.19C30.18,277.35 32.42,277.48 34.6,277.62C36.91,277.77 39.39,277.91 41.75,278.05C44.06,278.19 46.43,278.33 48.62,278.48C50.64,278.62 52.64,278.75 54.44,278.91C56,279.04 57.49,279.18 58.8,279.34C59.87,279.47 60.87,279.6 61.72,279.77Q62.38,279.9 63.47,280.2L65.16,280.2" style="vector-effect: none; stroke-width: 2px; stroke: rgb(48, 18, 59); stroke-opacity: 1; fill: rgb(48, 18, 59); fill-opacity: 0.5;"/><path class="meanline" d="M46.58740997314453,273.42H65.16" style="fill: none; vector-effect: none; stroke-width: 2px; stroke-dasharray: 4px, 2px; stroke: rgb(48, 18, 59); stroke-opacity: 1;"/></g><g class="trace violins" style="opacity: 0.6;"><path class="violin" d="M102.89,262.92L100.89,262.92Q99.69,263.02 98.98,263.06C98.09,263.11 97.06,263.16 95.97,263.21C94.67,263.26 93.21,263.31 91.71,263.35C90.02,263.4 88.17,263.44 86.32,263.49C84.35,263.54 82.26,263.58 80.22,263.63C78.16,263.68 76.03,263.72 74.01,263.77C72.07,263.82 70.12,263.86 68.32,263.91C66.7,263.95 65.09,264 63.69,264.05C62.53,264.09 61.37,264.14 60.51,264.2C59.92,264.24 59.05,264.25 59.03,264.34C59.02,264.38 59.15,264.44 59.28,264.48C59.59,264.57 60.36,264.58 60.99,264.62C61.76,264.67 62.69,264.71 63.56,264.76C64.46,264.81 65.41,264.85 66.29,264.9C67.11,264.95 67.9,264.99 68.65,265.04C69.33,265.08 69.95,265.13 70.61,265.18C71.27,265.23 71.9,265.28 72.61,265.33C73.43,265.38 74.31,265.43 75.26,265.47C76.38,265.52 77.63,265.57 78.92,265.61C80.36,265.66 81.94,265.7 83.49,265.75C85.1,265.8 86.81,265.84 88.42,265.89C89.98,265.94 91.56,265.98 93.01,266.03C94.32,266.07 95.61,266.12 96.76,266.17C97.73,266.22 98.65,266.27 99.44,266.32Q100.07,266.36 101.13,266.46L102.89,266.46" style="vector-effect: none; stroke-width: 2px; stroke: rgb(48, 18, 59); stroke-opacity: 1; fill: rgb(48, 18, 59); fill-opacity: 0.5;"/><path class="meanline" d="M61.15081024169922,264.63H102.89" style="fill: none; vector-effect: none; stroke-width: 2px; stroke-dasharray: 4px, 2px; stroke: rgb(48, 18, 59); stroke-opacity: 1;"/></g><g class="trace violins" style="opacity: 0.6;"><path class="violin" d="M140.62,243.05L139.62,243.05Q139.09,243.08 138.79,243.09C138.44,243.1 138.04,243.12 137.63,243.13C137.18,243.15 136.69,243.16 136.22,243.18C135.75,243.19 135.25,243.21 134.81,243.22C134.42,243.23 134,243.24 133.71,243.26C133.51,243.27 133.22,243.28 133.22,243.3C133.22,243.31 133.37,243.33 133.49,243.34C133.7,243.36 134.07,243.37 134.39,243.38C134.76,243.39 135.2,243.41 135.58,243.42C135.93,243.43 136.35,243.44 136.59,243.46C136.73,243.47 136.91,243.49 136.91,243.5C136.91,243.52 136.4,243.54 136.04,243.55C135.43,243.57 134.52,243.58 133.59,243.59C132.36,243.61 130.86,243.62 129.31,243.63C127.47,243.64 125.39,243.66 123.29,243.67C120.99,243.68 118.5,243.7 116.08,243.71C113.63,243.72 111.06,243.74 108.69,243.75C106.5,243.76 104.26,243.77 102.37,243.79C100.84,243.8 99.25,243.81 98.22,243.83C97.61,243.84 96.75,243.86 96.75,243.88C96.75,243.89 97.38,243.91 97.82,243.92C98.55,243.94 99.69,243.95 100.72,243.96C101.91,243.97 103.26,243.99 104.56,244C105.89,244.01 107.27,244.03 108.61,244.04C109.92,244.05 111.22,244.07 112.49,244.08C113.72,244.09 114.93,244.11 116.12,244.12C117.28,244.13 118.42,244.15 119.56,244.16C120.69,244.17 121.8,244.18 122.92,244.2C124.03,244.21 125.15,244.23 126.25,244.25C127.33,244.26 128.43,244.28 129.48,244.29C130.49,244.3 131.5,244.32 132.46,244.33C133.35,244.34 134.23,244.36 135.04,244.37C135.76,244.38 136.46,244.4 137.09,244.41C137.62,244.42 138.13,244.43 138.57,244.45Q138.92,244.46 139.53,244.49L140.62,244.49" style="vector-effect: none; stroke-width: 2px; stroke: rgb(48, 18, 59); stroke-opacity: 1; fill: rgb(48, 18, 59); fill-opacity: 0.5;"/><path class="meanline" d="M96.75,243.88H140.62" style="fill: none; vector-effect: none; stroke-width: 2px; stroke-dasharray: 4px, 2px; stroke: rgb(48, 18, 59); stroke-opacity: 1;"/></g><g class="trace violins" style="opacity: 0.6;"><path class="violin" d="M178.34,216.51L177.38,216.51Q176.88,216.52 176.6,216.52C176.26,216.53 175.88,216.53 175.49,216.54C175.06,216.55 174.59,216.55 174.13,216.56C173.67,216.57 173.18,216.57 172.74,216.58C172.34,216.58 171.92,216.58 171.58,216.59C171.31,216.59 171.05,216.6 170.86,216.61C170.74,216.62 170.65,216.62 170.56,216.63C170.48,216.63 170.44,216.64 170.35,216.64C170.19,216.65 169.96,216.65 169.68,216.66C169.24,216.67 168.61,216.67 167.94,216.68C167.03,216.69 165.9,216.7 164.74,216.7C163.34,216.71 161.73,216.71 160.12,216.71C158.35,216.72 156.41,216.72 154.53,216.73C152.62,216.74 150.62,216.74 148.74,216.75C146.94,216.76 145.13,216.76 143.47,216.77C141.98,216.77 140.52,216.77 139.23,216.78C138.15,216.78 137.1,216.79 136.25,216.8C135.62,216.81 134.85,216.8 134.61,216.82C134.54,216.83 134.48,216.83 134.48,216.84C134.48,216.86 135.46,216.85 136.11,216.85C137.08,216.86 138.39,216.86 139.71,216.87C141.33,216.88 143.23,216.89 145.13,216.89C147.24,216.9 149.54,216.9 151.79,216.9C154.09,216.91 156.49,216.91 158.76,216.92C160.92,216.93 163.1,216.93 165.09,216.94C166.87,216.95 168.62,216.95 170.16,216.96C171.46,216.96 172.68,216.96 173.74,216.97Q174.58,216.97 176,216.99L178.34,216.99" style="vector-effect: none; stroke-width: 2px; stroke: rgb(48, 18, 59); stroke-opacity: 1; fill: rgb(48, 18, 59); fill-opacity: 0.5;"/><path class="meanline" d="M136.1923828125,216.8H178.34" style="fill: none; vector-effect: none; stroke-width: 2px; stroke-dasharray: 4px, 2px; stroke: rgb(48, 18, 59); stroke-opacity: 1;"/></g><g class="trace violins" style="opacity: 0.6;"><path class="violin" d="M65.16,297.03L63.84,297.03Q63.08,297.09 62.64,297.12C62.09,297.15 61.46,297.18 60.8,297.21C60.02,297.24 59.15,297.27 58.26,297.3C57.26,297.33 56.18,297.37 55.09,297.4C53.93,297.43 52.71,297.46 51.5,297.49C50.26,297.52 48.99,297.55 47.73,297.58C46.47,297.61 45.19,297.64 43.93,297.67C42.68,297.7 41.44,297.73 40.2,297.76C38.97,297.79 37.74,297.82 36.52,297.85C35.31,297.88 34.1,297.91 32.92,297.94C31.77,297.97 30.62,298 29.52,298.03C28.48,298.06 27.46,298.09 26.5,298.12C25.64,298.15 24.79,298.18 24.04,298.21C23.41,298.24 22.78,298.26 22.29,298.3C21.93,298.33 21.45,298.31 21.34,298.39C21.31,298.42 21.29,298.45 21.3,298.48C21.35,298.56 21.9,298.55 22.29,298.58C22.85,298.62 23.59,298.64 24.35,298.67C25.27,298.7 26.33,298.73 27.42,298.76C28.66,298.79 30.01,298.82 31.38,298.85C32.87,298.88 34.46,298.91 36.05,298.94C37.72,298.97 39.46,299 41.18,299.03C42.93,299.06 44.73,299.09 46.47,299.12C48.18,299.15 49.9,299.18 51.53,299.21C53.05,299.24 54.56,299.27 55.95,299.3C57.18,299.33 58.38,299.36 59.44,299.39C60.33,299.42 61.18,299.45 61.91,299.48Q62.5,299.51 63.49,299.57L65.16,299.57" style="vector-effect: none; stroke-width: 2px; stroke: rgb(33, 226, 181); stroke-opacity: 1; fill: rgb(33, 226, 181); fill-opacity: 0.5;"/><path class="meanline" d="M21.41413116455078,298.36H65.16" style="fill: none; vector-effect: none; stroke-width: 2px; stroke-dasharray: 4px, 2px; stroke: rgb(33, 226, 181); stroke-opacity: 1;"/></g><g class="trace violins" style="opacity: 0.6;"><path class="violin" d="M102.89,293.86L101.78,293.86Q101.19,293.91 100.85,293.93C100.45,293.95 99.99,293.97 99.52,293.99C99.01,294.01 98.45,294.04 97.9,294.06C97.34,294.08 96.75,294.11 96.21,294.13C95.71,294.15 95.2,294.17 94.76,294.2C94.39,294.22 94.05,294.25 93.73,294.27C93.46,294.29 93.24,294.31 92.97,294.33C92.67,294.35 92.39,294.38 92.03,294.4C91.53,294.43 90.93,294.45 90.25,294.47C89.36,294.5 88.27,294.52 87.13,294.54C85.76,294.57 84.19,294.59 82.61,294.61C80.87,294.63 78.97,294.65 77.12,294.67C75.24,294.69 73.28,294.72 71.44,294.74C69.69,294.76 67.92,294.79 66.32,294.81C64.91,294.83 63.51,294.85 62.33,294.88C61.39,294.9 60.41,294.92 59.81,294.95C59.48,294.97 59.03,294.99 59.03,295.01C59.03,295.03 59.69,295.06 60.16,295.08C60.92,295.11 62.07,295.13 63.18,295.15C64.54,295.18 66.15,295.2 67.73,295.22C69.45,295.24 71.31,295.26 73.11,295.28C74.91,295.3 76.78,295.33 78.53,295.35C80.18,295.37 81.83,295.4 83.34,295.42C84.68,295.44 85.98,295.46 87.13,295.49C88.09,295.51 89,295.54 89.77,295.56C90.37,295.58 90.93,295.59 91.38,295.62C91.71,295.64 91.98,295.66 92.24,295.69C92.45,295.71 92.6,295.74 92.8,295.76C93.02,295.78 93.23,295.81 93.48,295.83C93.8,295.86 94.18,295.88 94.58,295.9C95.05,295.92 95.58,295.94 96.11,295.96C96.67,295.98 97.28,296.01 97.85,296.03C98.41,296.05 98.98,296.08 99.5,296.1C99.97,296.12 100.43,296.14 100.84,296.17Q101.18,296.19 101.78,296.24L102.89,296.24" style="vector-effect: none; stroke-width: 2px; stroke: rgb(33, 226, 181); stroke-opacity: 1; fill: rgb(33, 226, 181); fill-opacity: 0.5;"/><path class="meanline" d="M59.17946243286133,295.03H102.89" style="fill: none; vector-effect: none; stroke-width: 2px; stroke-dasharray: 4px, 2px; stroke: rgb(33, 226, 181); stroke-opacity: 1;"/></g><g class="trace violins" style="opacity: 0.6;"><path class="violin" d="M140.62,287.6L139.2,287.6Q138.35,287.72 137.84,287.77C137.21,287.84 136.47,287.89 135.69,287.95C134.76,288.02 133.72,288.07 132.65,288.13C131.45,288.19 130.13,288.25 128.82,288.31C127.44,288.37 125.97,288.42 124.55,288.48C123.14,288.54 121.69,288.6 120.35,288.66C119.11,288.72 117.88,288.77 116.79,288.84C115.87,288.9 114.98,288.95 114.25,289.02C113.7,289.07 113.2,289.13 112.79,289.2C112.49,289.25 112.27,289.31 112.01,289.37C111.74,289.43 111.5,289.5 111.17,289.55C110.7,289.62 110.1,289.68 109.44,289.73C108.57,289.8 107.49,289.85 106.41,289.91C105.18,289.97 103.75,290.02 102.45,290.08C101.19,290.14 99.77,290.19 98.72,290.26C97.96,290.31 96.75,290.36 96.75,290.44C96.75,290.49 97.27,290.57 97.7,290.62C98.59,290.72 100.29,290.75 101.83,290.8C103.77,290.87 106.13,290.91 108.41,290.97C110.87,291.03 113.56,291.09 116.1,291.15C118.6,291.21 121.16,291.27 123.52,291.33C125.67,291.39 127.8,291.45 129.7,291.51C131.33,291.56 132.89,291.61 134.24,291.68C135.33,291.73 136.35,291.79 137.21,291.86Q137.87,291.91 138.95,292.04L140.62,292.04" style="vector-effect: none; stroke-width: 2px; stroke: rgb(33, 226, 181); stroke-opacity: 1; fill: rgb(33, 226, 181); fill-opacity: 0.5;"/><path class="meanline" d="M105.05267333984375,289.97H140.62" style="fill: none; vector-effect: none; stroke-width: 2px; stroke-dasharray: 4px, 2px; stroke: rgb(33, 226, 181); stroke-opacity: 1;"/></g><g class="trace violins" style="opacity: 0.6;"><path class="violin" d="M178.34,283.26L177.04,283.26Q176.29,283.31 175.86,283.33C175.32,283.35 174.7,283.37 174.06,283.39C173.32,283.41 172.49,283.43 171.66,283.45C170.76,283.47 169.78,283.49 168.85,283.51C167.92,283.53 166.95,283.55 166.08,283.57C165.3,283.59 164.49,283.61 163.88,283.64C163.44,283.66 162.75,283.66 162.74,283.7C162.74,283.72 162.82,283.74 162.91,283.76C163.15,283.81 163.77,283.8 164.27,283.82C164.89,283.84 165.66,283.87 166.35,283.89C167.04,283.91 167.81,283.93 168.41,283.95C168.88,283.97 169.67,283.96 169.68,284.01C169.68,284.03 169.6,284.05 169.52,284.07C169.23,284.13 168.34,284.11 167.59,284.13C166.56,284.16 165.22,284.18 163.89,284.2C162.32,284.22 160.54,284.24 158.77,284.26C156.86,284.28 154.82,284.3 152.83,284.32C150.83,284.34 148.75,284.36 146.79,284.38C144.93,284.4 143.06,284.43 141.37,284.45C139.9,284.47 138.42,284.49 137.23,284.51C136.33,284.53 135.3,284.53 134.85,284.57C134.67,284.59 134.48,284.61 134.48,284.63C134.48,284.66 135.41,284.67 136.01,284.69C136.85,284.72 137.95,284.74 139.02,284.76C140.24,284.78 141.6,284.8 142.94,284.82C144.36,284.84 145.84,284.86 147.31,284.88C148.82,284.9 150.35,284.92 151.89,284.94C153.45,284.96 155.03,284.99 156.6,285.01C158.18,285.03 159.78,285.05 161.34,285.07C162.87,285.09 164.41,285.11 165.87,285.13C167.24,285.15 168.61,285.17 169.87,285.19C170.99,285.21 172.09,285.23 173.06,285.25C173.88,285.27 174.67,285.3 175.34,285.32Q175.88,285.34 176.79,285.38L178.34,285.38" style="vector-effect: none; stroke-width: 2px; stroke: rgb(33, 226, 181); stroke-opacity: 1; fill: rgb(33, 226, 181); fill-opacity: 0.5;"/><path class="meanline" d="M140.64328002929688,284.46H178.34" style="fill: none; vector-effect: none; stroke-width: 2px; stroke-dasharray: 4px, 2px; stroke: rgb(33, 226, 181); stroke-opacity: 1;"/></g><g class="trace violins" style="opacity: 0.6;"><path class="violin" d="M216.07,274.48L214.94,274.48Q214.32,274.51 213.97,274.52C213.54,274.54 213.06,274.56 212.56,274.57C211.99,274.59 211.35,274.6 210.72,274.61C210.05,274.63 209.33,274.64 208.63,274.66C207.94,274.67 207.22,274.68 206.56,274.7C205.95,274.71 205.33,274.73 204.8,274.75C204.36,274.76 203.92,274.77 203.6,274.79C203.39,274.8 203.09,274.82 203.09,274.84C203.09,274.85 203.22,274.87 203.32,274.88C203.52,274.9 203.9,274.92 204.24,274.93C204.67,274.95 205.19,274.96 205.68,274.97C206.2,274.98 206.78,274.99 207.29,275.01C207.75,275.02 208.29,275.04 208.61,275.06C208.79,275.07 209.04,275.09 209.04,275.1C209.04,275.12 208.47,275.14 208.07,275.15C207.41,275.17 206.42,275.18 205.44,275.19C204.2,275.21 202.71,275.23 201.23,275.24C199.56,275.26 197.72,275.27 195.93,275.28C194.08,275.3 192.13,275.31 190.28,275.33C188.49,275.34 186.69,275.35 185,275.37C183.44,275.38 181.92,275.4 180.51,275.42C179.24,275.43 178.03,275.44 176.91,275.46C175.94,275.47 174.99,275.49 174.19,275.51C173.55,275.52 172.8,275.52 172.48,275.55C172.35,275.56 172.21,275.59 172.21,275.6C172.21,275.63 173.21,275.63 173.89,275.64C174.92,275.66 176.37,275.68 177.81,275.69C179.57,275.71 181.62,275.72 183.66,275.73C185.89,275.75 188.32,275.77 190.65,275.78C192.99,275.8 195.43,275.8 197.7,275.82C199.83,275.83 201.97,275.85 203.9,275.87C205.6,275.88 207.25,275.89 208.7,275.91C209.9,275.92 211.03,275.94 211.99,275.96Q212.75,275.97 214.02,276L216.07,276" style="vector-effect: none; stroke-width: 2px; stroke: rgb(33, 226, 181); stroke-opacity: 1; fill: rgb(33, 226, 181); fill-opacity: 0.5;"/><path class="meanline" d="M181.28082275390625,275.41H216.07" style="fill: none; vector-effect: none; stroke-width: 2px; stroke-dasharray: 4px, 2px; stroke: rgb(33, 226, 181); stroke-opacity: 1;"/></g><g class="trace violins" style="opacity: 0.6;"><path class="violin" d="M253.79,263.56L252.73,263.56Q252.12,263.58 251.76,263.59C251.32,263.6 250.81,263.61 250.28,263.62C249.65,263.63 248.94,263.64 248.21,263.65C247.39,263.66 246.51,263.68 245.6,263.69C244.62,263.7 243.58,263.71 242.53,263.72C241.43,263.73 240.29,263.74 239.14,263.75C237.96,263.76 236.74,263.77 235.53,263.78C234.29,263.79 233.05,263.81 231.79,263.82C230.51,263.83 229.22,263.84 227.93,263.85C226.62,263.86 225.3,263.87 223.98,263.88C222.64,263.89 221.28,263.9 219.94,263.91C218.62,263.92 217.26,263.93 215.99,263.94C214.8,263.95 213.56,263.97 212.53,263.98C211.69,263.99 210.68,263.99 210.26,264.01C210.1,264.02 209.93,264.03 209.93,264.04C209.93,264.06 211.17,264.06 211.97,264.07C213.13,264.08 214.69,264.1 216.2,264.11C217.94,264.12 219.92,264.13 221.83,264.14C223.8,264.15 225.87,264.16 227.82,264.17C229.67,264.18 231.53,264.19 233.25,264.2C234.82,264.21 236.32,264.23 237.73,264.24C238.98,264.25 240.16,264.26 241.28,264.27C242.29,264.28 243.24,264.29 244.17,264.3C245.03,264.31 245.85,264.32 246.65,264.33C247.39,264.34 248.12,264.35 248.8,264.36C249.42,264.37 250.02,264.39 250.56,264.4C251.03,264.41 251.48,264.42 251.88,264.43Q252.21,264.44 252.77,264.46L253.79,264.46" style="vector-effect: none; stroke-width: 2px; stroke: rgb(33, 226, 181); stroke-opacity: 1; fill: rgb(33, 226, 181); fill-opacity: 0.5;"/><path class="meanline" d="M210.27084350585938,264.01H253.79" style="fill: none; vector-effect: none; stroke-width: 2px; stroke-dasharray: 4px, 2px; stroke: rgb(33, 226, 181); stroke-opacity: 1;"/></g><g class="trace violins" style="opacity: 0.6;"><path class="violin" d="M291.52,250.7L290.47,250.7Q289.88,250.71 289.54,250.71C289.12,250.72 288.63,250.73 288.12,250.73C287.52,250.74 286.86,250.74 286.18,250.74C285.43,250.74 284.62,250.75 283.81,250.75C282.96,250.76 282.07,250.76 281.21,250.77C280.36,250.77 279.49,250.78 278.66,250.78C277.88,250.78 277.11,250.78 276.38,250.79C275.72,250.79 275.08,250.8 274.47,250.81C273.9,250.81 273.38,250.82 272.83,250.82C272.28,250.82 271.77,250.83 271.19,250.83C270.54,250.84 269.87,250.85 269.13,250.85C268.25,250.86 267.29,250.86 266.26,250.86C265.07,250.87 263.76,250.88 262.42,250.88C260.96,250.89 259.37,250.89 257.83,250.89C256.28,250.89 254.64,250.89 253.17,250.9C251.86,250.9 250.46,250.91 249.44,250.92C248.74,250.92 247.66,250.93 247.66,250.93C247.66,250.93 248.13,250.94 248.52,250.94C249.31,250.95 250.78,250.96 252.13,250.96C253.84,250.97 255.92,250.97 257.96,250.97C260.2,250.97 262.66,250.98 265.03,250.98C267.42,250.99 269.9,250.99 272.22,251C274.41,251 276.6,251.01 278.59,251.01C280.35,251.01 282.07,251.01 283.58,251.02C284.84,251.02 286.04,251.03 287.06,251.04Q287.87,251.04 289.24,251.05L291.52,251.05" style="vector-effect: none; stroke-width: 2px; stroke: rgb(33, 226, 181); stroke-opacity: 1; fill: rgb(33, 226, 181); fill-opacity: 0.5;"/><path class="meanline" d="M253.14283752441406,250.9H291.52" style="fill: none; vector-effect: none; stroke-width: 2px; stroke-dasharray: 4px, 2px; stroke: rgb(33, 226, 181); stroke-opacity: 1;"/></g><g class="trace violins" style="opacity: 0.6;"><path class="violin" d="M329.25,231.66L328.22,231.66Q327.68,231.67 327.38,231.67C327.02,231.67 326.6,231.68 326.18,231.68C325.72,231.68 325.21,231.69 324.73,231.69C324.25,231.69 323.73,231.7 323.28,231.7C322.88,231.7 322.45,231.71 322.14,231.71C321.93,231.71 321.62,231.72 321.62,231.72C321.62,231.72 321.73,231.73 321.81,231.73C321.97,231.74 322.29,231.74 322.54,231.74C322.81,231.74 323.14,231.75 323.36,231.75C323.51,231.75 323.74,231.76 323.74,231.76C323.74,231.76 323.42,231.77 323.18,231.77C322.75,231.78 322.07,231.78 321.39,231.78C320.5,231.78 319.41,231.79 318.31,231.79C317.03,231.79 315.59,231.8 314.14,231.8C312.57,231.8 310.89,231.81 309.22,231.81C307.49,231.81 305.7,231.82 303.95,231.82C302.2,231.82 300.42,231.83 298.7,231.83C297.05,231.83 295.38,231.84 293.83,231.84C292.4,231.84 290.97,231.85 289.72,231.85C288.66,231.85 287.59,231.86 286.79,231.86C286.24,231.86 285.38,231.86 285.38,231.87C285.38,231.87 285.56,231.88 285.73,231.88C286.14,231.89 287.03,231.89 287.83,231.89C288.88,231.89 290.18,231.9 291.49,231.9C293,231.9 294.69,231.91 296.38,231.91C298.2,231.91 300.15,231.92 302.07,231.92C304.04,231.92 306.09,231.93 308.07,231.93C310.01,231.93 311.97,231.94 313.82,231.94C315.55,231.94 317.26,231.94 318.83,231.95C320.22,231.95 321.58,231.96 322.78,231.97C323.79,231.97 324.74,231.98 325.57,231.98Q326.23,231.98 327.35,231.99L329.25,231.99" style="vector-effect: none; stroke-width: 2px; stroke: rgb(33, 226, 181); stroke-opacity: 1; fill: rgb(33, 226, 181); fill-opacity: 0.5;"/><path class="meanline" d="M286.06298828125,231.86H329.25" style="fill: none; vector-effect: none; stroke-width: 2px; stroke-dasharray: 4px, 2px; stroke: rgb(33, 226, 181); stroke-opacity: 1;"/></g><g class="trace violins" style="opacity: 0.6;"><path class="violin" d="M366.97,215.69L365.37,215.69Q364.45,215.7 363.92,215.7C363.26,215.7 362.49,215.71 361.7,215.71C360.79,215.71 359.77,215.72 358.75,215.72C357.66,215.72 356.48,215.73 355.36,215.73C354.26,215.73 353.11,215.74 352.09,215.74C351.2,215.74 350.29,215.75 349.6,215.75C349.1,215.75 348.53,215.75 348.32,215.76C348.25,215.76 348.18,215.77 348.18,215.77C348.18,215.77 348.53,215.78 348.53,215.78C348.53,215.78 348.46,215.79 348.38,215.79C348.13,215.8 347.44,215.8 346.83,215.8C345.94,215.8 344.73,215.81 343.54,215.81C342.12,215.81 340.47,215.82 338.88,215.82C337.22,215.82 335.42,215.83 333.77,215.83C332.21,215.83 330.62,215.84 329.22,215.84C328.02,215.84 326.84,215.85 325.86,215.85C325.1,215.85 324.36,215.86 323.85,215.86C323.54,215.86 323.11,215.87 323.11,215.87C323.11,215.87 323.42,215.88 323.67,215.88C324.15,215.89 324.96,215.89 325.76,215.89C326.85,215.89 328.23,215.9 329.64,215.9C331.34,215.9 333.29,215.91 335.24,215.91C337.38,215.91 339.71,215.92 341.96,215.92C344.24,215.92 346.63,215.93 348.86,215.93C350.97,215.93 353.08,215.94 355,215.94C356.69,215.94 358.34,215.95 359.78,215.95C360.98,215.95 362.1,215.96 363.06,215.96C363.81,215.96 364.49,215.97 365.05,215.97C365.46,215.97 365.83,215.98 366.12,215.98C366.32,215.98 366.5,215.99 366.63,215.99C366.72,215.99 366.79,216 366.85,216C366.88,216 366.91,216.01 366.93,216.01C366.94,216.01 366.95,216.02 366.96,216.02C366.96,216.02 366.97,216.03 366.97,216.03C366.97,216.03 366.97,216.04 366.97,216.04C366.97,216.04 366.97,216.05 366.97,216.05C366.97,216.05 366.97,216.06 366.97,216.06C366.97,216.06 366.97,216.07 366.97,216.07C366.97,216.07 366.97,216.08 366.97,216.08C366.97,216.08 366.97,216.09 366.97,216.09C366.97,216.09 366.97,216.1 366.97,216.1C366.97,216.1 366.97,216.11 366.97,216.11C366.97,216.11 366.97,216.12 366.97,216.12C366.97,216.12 366.97,216.13 366.97,216.13C366.97,216.13 366.97,216.14 366.97,216.14C366.97,216.14 366.97,216.15 366.97,216.15C366.97,216.15 366.97,216.16 366.97,216.16C366.97,216.16 366.97,216.17 366.97,216.17C366.97,216.17 366.97,216.18 366.97,216.18C366.97,216.18 366.96,216.19 366.96,216.19C366.95,216.19 366.94,216.2 366.93,216.2C366.91,216.2 366.88,216.21 366.85,216.21C366.8,216.21 366.74,216.22 366.67,216.22C366.57,216.22 366.44,216.23 366.29,216.23C366.09,216.23 365.86,216.24 365.6,216.24C365.28,216.24 364.9,216.25 364.5,216.25C364.03,216.25 363.5,216.26 362.97,216.26C362.4,216.26 361.77,216.27 361.18,216.27C360.59,216.27 359.97,216.28 359.43,216.28C358.98,216.28 358.48,216.29 358.17,216.29C358,216.29 357.76,216.3 357.76,216.3C357.76,216.3 358.09,216.31 358.32,216.31C358.67,216.31 359.2,216.32 359.68,216.32C360.23,216.32 360.86,216.33 361.45,216.33C362.04,216.33 362.67,216.34 363.23,216.34C363.74,216.34 364.24,216.35 364.69,216.35Q365.07,216.35 365.73,216.36L366.97,216.36" style="vector-effect: none; stroke-width: 2px; stroke: rgb(33, 226, 181); stroke-opacity: 1; fill: rgb(33, 226, 181); fill-opacity: 0.5;"/><path class="meanline" d="M325.3638610839844,215.89H366.97" style="fill: none; vector-effect: none; stroke-width: 2px; stroke-dasharray: 4px, 2px; stroke: rgb(33, 226, 181); stroke-opacity: 1;"/></g><g class="trace violins" style="opacity: 0.6;"><path class="violin" d="M404.7,193.29L403.7,193.29Q403.17,193.3 402.86,193.31C402.49,193.32 402.07,193.33 401.65,193.34C401.18,193.35 400.67,193.36 400.17,193.37C399.65,193.38 399.11,193.38 398.6,193.39C398.11,193.4 397.63,193.41 397.18,193.42C396.77,193.43 396.4,193.44 396.02,193.45C395.65,193.46 395.33,193.46 394.94,193.47C394.49,193.48 394.03,193.49 393.49,193.5C392.8,193.51 391.99,193.52 391.12,193.53C390.03,193.54 388.77,193.55 387.47,193.56C385.99,193.57 384.35,193.57 382.73,193.58C381.04,193.59 379.23,193.6 377.53,193.61C375.9,193.62 374.24,193.63 372.73,193.64C371.38,193.65 370.07,193.65 368.88,193.66C367.85,193.67 366.89,193.68 365.99,193.69C365.19,193.7 364.44,193.71 363.73,193.72C363.09,193.73 362.42,193.73 361.89,193.74C361.49,193.75 360.84,193.76 360.84,193.77C360.84,193.78 361.16,193.79 361.43,193.8C362.05,193.82 363.3,193.81 364.47,193.82C366.06,193.83 368.08,193.84 370.08,193.85C372.37,193.86 374.97,193.87 377.47,193.88C380.03,193.89 382.75,193.9 385.27,193.91C387.65,193.92 390.04,193.92 392.19,193.93C394.06,193.94 395.88,193.95 397.45,193.96Q398.73,193.97 400.93,193.99L404.7,193.99" style="vector-effect: none; stroke-width: 2px; stroke: rgb(33, 226, 181); stroke-opacity: 1; fill: rgb(33, 226, 181); fill-opacity: 0.5;"/><path class="meanline" d="M364.4381408691406,193.71H404.7" style="fill: none; vector-effect: none; stroke-width: 2px; stroke-dasharray: 4px, 2px; stroke: rgb(33, 226, 181); stroke-opacity: 1;"/></g><g class="trace violins" style="opacity: 0.6;"><path class="violin" d="M65.16,257.68L63.35,257.68Q62.23,257.74 61.56,257.77C60.71,257.8 59.73,257.83 58.68,257.86C57.42,257.89 56,257.92 54.53,257.95C52.87,257.98 51.04,258 49.21,258.03C47.25,258.06 45.16,258.09 43.12,258.12C41.07,258.15 38.95,258.18 36.95,258.21C35.05,258.24 33.15,258.27 31.41,258.3C29.86,258.33 28.35,258.36 27.01,258.39C25.89,258.42 24.82,258.44 23.93,258.47C23.24,258.5 22.59,258.52 22.1,258.56C21.78,258.59 21.32,258.59 21.3,258.65C21.29,258.67 21.34,258.72 21.39,258.74C21.53,258.81 21.96,258.8 22.32,258.83C22.81,258.87 23.42,258.89 24.04,258.92C24.77,258.95 25.58,258.97 26.41,259C27.32,259.03 28.29,259.06 29.28,259.09C30.33,259.12 31.42,259.15 32.54,259.18C33.73,259.21 34.96,259.24 36.23,259.27C37.58,259.3 38.99,259.33 40.43,259.36C41.95,259.39 43.53,259.42 45.1,259.45C46.7,259.48 48.36,259.5 49.96,259.53C51.51,259.56 53.08,259.59 54.54,259.62C55.88,259.65 57.2,259.68 58.38,259.71C59.4,259.74 60.38,259.77 61.23,259.8Q61.92,259.83 63.11,259.89L65.16,259.89" style="vector-effect: none; stroke-width: 2px; stroke: rgb(247, 184, 54); stroke-opacity: 1; fill: rgb(247, 184, 54); fill-opacity: 0.5;"/><path class="meanline" d="M21.48720359802246,258.77H65.16" style="fill: none; vector-effect: none; stroke-width: 2px; stroke-dasharray: 4px, 2px; stroke: rgb(247, 184, 54); stroke-opacity: 1;"/></g><g class="trace violins" style="opacity: 0.6;"><path class="violin" d="M102.89,242.46L101.21,242.46Q100.25,242.49 99.69,242.5C99,242.52 98.2,242.53 97.37,242.54C96.41,242.55 95.35,242.57 94.28,242.58C93.12,242.59 91.86,242.61 90.65,242.62C89.43,242.63 88.16,242.64 86.98,242.65C85.88,242.66 84.77,242.68 83.79,242.69C82.95,242.7 82.15,242.71 81.45,242.73C80.88,242.74 80.38,242.76 79.9,242.77C79.47,242.78 79.12,242.8 78.7,242.81C78.22,242.82 77.74,242.84 77.18,242.85C76.47,242.87 75.65,242.88 74.77,242.89C73.72,242.9 72.51,242.92 71.3,242.93C69.97,242.94 68.51,242.96 67.12,242.97C65.75,242.98 64.29,242.99 63.03,243C61.95,243.01 60.76,243.02 60.03,243.04C59.61,243.05 59.03,243.07 59.03,243.08C59.03,243.1 59.94,243.11 60.58,243.12C61.62,243.14 63.19,243.15 64.7,243.16C66.54,243.17 68.7,243.19 70.82,243.2C73.11,243.21 75.59,243.23 77.97,243.24C80.34,243.25 82.77,243.27 85.05,243.28C87.17,243.29 89.27,243.31 91.18,243.32C92.85,243.33 94.45,243.34 95.86,243.35C97.02,243.36 98.11,243.37 99.04,243.39Q99.76,243.4 100.97,243.43L102.89,243.43" style="vector-effect: none; stroke-width: 2px; stroke: rgb(247, 184, 54); stroke-opacity: 1; fill: rgb(247, 184, 54); fill-opacity: 0.5;"/><path class="meanline" d="M64.51297760009766,242.99H102.89" style="fill: none; vector-effect: none; stroke-width: 2px; stroke-dasharray: 4px, 2px; stroke: rgb(247, 184, 54); stroke-opacity: 1;"/></g><g class="trace violins" style="opacity: 0.6;"><path class="violin" d="M140.62,221.92L139.57,221.92Q139.02,221.93 138.7,221.94C138.32,221.95 137.88,221.95 137.43,221.96C136.93,221.97 136.39,221.97 135.85,221.98C135.29,221.99 134.7,221.99 134.14,222C133.59,222.01 133.04,222.01 132.52,222.02C132.03,222.03 131.57,222.03 131.11,222.04C130.67,222.05 130.26,222.05 129.81,222.06C129.31,222.07 128.81,222.07 128.24,222.08C127.55,222.09 126.79,222.09 125.96,222.1C124.96,222.11 123.83,222.11 122.65,222.12C121.31,222.13 119.83,222.13 118.34,222.14C116.74,222.15 115.03,222.15 113.37,222.16C111.7,222.17 109.97,222.17 108.34,222.18C106.79,222.19 105.24,222.19 103.82,222.2C102.56,222.21 101.32,222.21 100.25,222.22C99.37,222.23 98.51,222.23 97.86,222.24C97.42,222.25 96.75,222.25 96.75,222.26C96.75,222.26 96.9,222.27 97.03,222.27C97.37,222.28 98.12,222.28 98.81,222.29C99.76,222.3 100.97,222.3 102.21,222.31C103.69,222.32 105.39,222.32 107.11,222.33C109.01,222.34 111.08,222.34 113.11,222.35C115.22,222.36 117.42,222.36 119.54,222.37C121.61,222.38 123.71,222.38 125.66,222.39C127.46,222.4 129.23,222.4 130.83,222.41C132.22,222.42 133.56,222.42 134.74,222.43C135.71,222.44 136.62,222.44 137.39,222.45Q137.99,222.46 139,222.47L140.62,222.47" style="vector-effect: none; stroke-width: 2px; stroke: rgb(247, 184, 54); stroke-opacity: 1; fill: rgb(247, 184, 54); fill-opacity: 0.5;"/><path class="meanline" d="M98.97789001464844,222.23H140.62" style="fill: none; vector-effect: none; stroke-width: 2px; stroke-dasharray: 4px, 2px; stroke: rgb(247, 184, 54); stroke-opacity: 1;"/></g><g class="trace violins" style="opacity: 0.6;"><path class="violin" d="M178.34,196.62L177.16,196.62Q176.53,196.63 176.17,196.63C175.74,196.63 175.26,196.63 174.77,196.63C174.23,196.63 173.63,196.63 173.06,196.63C172.49,196.63 171.87,196.64 171.33,196.64C170.84,196.64 170.34,196.64 169.95,196.64C169.66,196.64 169.31,196.63 169.2,196.64C169.17,196.64 169.14,196.65 169.14,196.65C169.14,196.66 169.38,196.65 169.49,196.65C169.58,196.65 169.74,196.66 169.74,196.66C169.74,196.66 169.55,196.66 169.4,196.66C169.12,196.66 168.64,196.66 168.17,196.66C167.56,196.66 166.81,196.67 166.05,196.67C165.18,196.67 164.22,196.67 163.26,196.67C162.22,196.67 161.13,196.67 160.03,196.67C158.87,196.67 157.68,196.68 156.45,196.68C155.15,196.68 153.82,196.68 152.45,196.68C151,196.68 149.48,196.68 147.96,196.68C146.39,196.68 144.74,196.69 143.17,196.69C141.64,196.69 140.02,196.69 138.64,196.69C137.47,196.69 136.14,196.69 135.39,196.69C134.99,196.69 134.48,196.7 134.48,196.7C134.48,196.7 135.74,196.7 136.6,196.7C137.93,196.7 139.84,196.7 141.67,196.7C143.84,196.7 146.37,196.71 148.79,196.71C151.32,196.71 154.03,196.71 156.55,196.71C158.95,196.71 161.39,196.71 163.56,196.71C165.44,196.71 167.31,196.72 168.84,196.72C170.01,196.72 171.21,196.72 171.93,196.72C172.32,196.72 172.84,196.72 172.84,196.72C172.84,196.72 172.25,196.73 171.84,196.73C171.21,196.73 170.27,196.73 169.41,196.73C168.43,196.73 167.29,196.73 166.25,196.73C165.23,196.73 164.13,196.74 163.24,196.74C162.52,196.74 161.64,196.74 161.3,196.74C161.18,196.74 161.05,196.74 161.05,196.74C161.05,196.74 162,196.75 162.59,196.75C163.4,196.75 164.46,196.75 165.46,196.75C166.55,196.75 167.76,196.76 168.88,196.76C169.97,196.76 171.1,196.76 172.11,196.76C173.01,196.76 173.89,196.76 174.66,196.76Q175.29,196.76 176.39,196.77L178.34,196.77" style="vector-effect: none; stroke-width: 2px; stroke: rgb(247, 184, 54); stroke-opacity: 1; fill: rgb(247, 184, 54); fill-opacity: 0.5;"/><path class="meanline" d="M138.6374053955078,196.7H178.34" style="fill: none; vector-effect: none; stroke-width: 2px; stroke-dasharray: 4px, 2px; stroke: rgb(247, 184, 54); stroke-opacity: 1;"/></g><g class="trace violins" style="opacity: 0.6;"><path class="violin" d="M216.07,174.54L215.12,174.54Q214.62,174.54 214.34,174.54C214.01,174.54 213.63,174.54 213.25,174.54C212.82,174.54 212.36,174.54 211.9,174.54C211.43,174.54 210.93,174.55 210.47,174.55C210.04,174.55 209.61,174.55 209.22,174.55C208.89,174.55 208.57,174.55 208.29,174.55C208.06,174.55 207.86,174.56 207.65,174.56C207.44,174.56 207.26,174.56 207.02,174.56C206.7,174.56 206.34,174.56 205.92,174.56C205.36,174.56 204.67,174.56 203.94,174.56C203.03,174.56 201.97,174.57 200.88,174.57C199.63,174.57 198.24,174.57 196.85,174.57C195.35,174.57 193.76,174.57 192.19,174.57C190.59,174.57 188.94,174.58 187.34,174.58C185.76,174.58 184.17,174.58 182.65,174.58C181.21,174.58 179.76,174.58 178.43,174.58C177.23,174.58 176.02,174.58 175,174.58C174.17,174.58 173.25,174.59 172.76,174.59C172.51,174.59 172.21,174.59 172.21,174.59C172.21,174.59 173.14,174.59 173.77,174.59C174.76,174.59 176.17,174.59 177.57,174.59C179.28,174.59 181.29,174.6 183.28,174.6C185.46,174.6 187.84,174.6 190.13,174.6C192.45,174.6 194.85,174.6 197.11,174.6C199.24,174.6 201.38,174.61 203.33,174.61C205.06,174.61 206.74,174.61 208.23,174.61C209.48,174.61 210.66,174.61 211.67,174.61Q212.47,174.61 213.82,174.61L216.07,174.61" style="vector-effect: none; stroke-width: 2px; stroke: rgb(247, 184, 54); stroke-opacity: 1; fill: rgb(247, 184, 54); fill-opacity: 0.5;"/><path class="meanline" d="M183.1750946044922,174.58H216.07" style="fill: none; vector-effect: none; stroke-width: 2px; stroke-dasharray: 4px, 2px; stroke: rgb(247, 184, 54); stroke-opacity: 1;"/></g><g class="trace violins" style="opacity: 0.6;"><path class="violin" d="M253.79,156.46L252.1,156.46Q251.03,156.46 250.39,156.46C249.56,156.46 248.59,156.46 247.55,156.46C246.28,156.46 244.84,156.46 243.34,156.46C241.61,156.46 239.68,156.46 237.74,156.46C235.63,156.46 233.36,156.46 231.14,156.46C228.88,156.46 226.51,156.46 224.28,156.46C222.16,156.46 220.01,156.46 218.09,156.46C216.42,156.46 214.76,156.47 213.41,156.47C212.38,156.47 211.32,156.47 210.69,156.47C210.36,156.47 209.93,156.47 209.93,156.47C209.93,156.47 210.42,156.47 210.75,156.47C211.25,156.47 211.96,156.47 212.63,156.47C213.39,156.47 214.25,156.47 215.09,156.47C215.97,156.47 216.88,156.47 217.79,156.47C218.71,156.47 219.64,156.47 220.57,156.47C221.5,156.47 222.43,156.47 223.37,156.47C224.32,156.47 225.27,156.48 226.25,156.48C227.26,156.48 228.28,156.48 229.33,156.48C230.43,156.48 231.55,156.48 232.7,156.48C233.89,156.48 235.13,156.48 236.36,156.48C237.61,156.48 238.9,156.48 240.15,156.48C241.38,156.48 242.62,156.48 243.8,156.48C244.9,156.48 245.99,156.48 247,156.48C247.9,156.48 248.77,156.48 249.55,156.48C250.21,156.48 250.83,156.49 251.37,156.49Q251.8,156.49 252.53,156.49L253.79,156.49" style="vector-effect: none; stroke-width: 2px; stroke: rgb(247, 184, 54); stroke-opacity: 1; fill: rgb(247, 184, 54); fill-opacity: 0.5;"/><path class="meanline" d="M209.9300079345703,156.47H253.79" style="fill: none; vector-effect: none; stroke-width: 2px; stroke-dasharray: 4px, 2px; stroke: rgb(247, 184, 54); stroke-opacity: 1;"/></g><g class="trace violins" style="opacity: 0.6;"><path class="violin" d="M291.52,139.79L290.41,139.79Q289.8,139.79 289.44,139.79C289,139.79 288.49,139.79 287.96,139.79C287.34,139.79 286.64,139.79 285.93,139.79C285.13,139.79 284.26,139.8 283.39,139.8C282.46,139.8 281.49,139.8 280.52,139.8C279.53,139.8 278.52,139.8 277.52,139.8C276.53,139.8 275.54,139.8 274.57,139.8C273.63,139.8 272.71,139.81 271.8,139.81C270.92,139.81 270.06,139.81 269.21,139.81C268.37,139.81 267.56,139.81 266.72,139.81C265.87,139.81 265.03,139.81 264.15,139.81C263.23,139.81 262.3,139.82 261.33,139.82C260.3,139.82 259.24,139.82 258.16,139.82C257.05,139.82 255.88,139.82 254.76,139.82C253.66,139.82 252.51,139.82 251.48,139.82C250.56,139.82 249.58,139.83 248.88,139.83C248.4,139.83 247.66,139.83 247.66,139.83C247.66,139.83 248.08,139.83 248.42,139.83C249.1,139.83 250.33,139.83 251.49,139.83C253,139.83 254.86,139.84 256.71,139.84C258.8,139.84 261.12,139.84 263.39,139.84C265.74,139.84 268.21,139.84 270.55,139.84C272.8,139.84 275.08,139.85 277.17,139.85C279.05,139.85 280.9,139.85 282.54,139.85C283.93,139.85 285.26,139.85 286.4,139.85Q287.31,139.85 288.87,139.85L291.52,139.85" style="vector-effect: none; stroke-width: 2px; stroke: rgb(247, 184, 54); stroke-opacity: 1; fill: rgb(247, 184, 54); fill-opacity: 0.5;"/><path class="meanline" d="M258.6250305175781,139.82H291.52" style="fill: none; vector-effect: none; stroke-width: 2px; stroke-dasharray: 4px, 2px; stroke: rgb(247, 184, 54); stroke-opacity: 1;"/></g><g class="trace violins" style="opacity: 0.6;"><path class="violin" d="M329.25,123.81L328.27,123.81Q327.75,123.81 327.46,123.81C327.11,123.81 326.7,123.81 326.3,123.81C325.86,123.81 325.37,123.81 324.9,123.81C324.44,123.81 323.94,123.81 323.51,123.81C323.14,123.81 322.73,123.81 322.46,123.81C322.3,123.81 322.06,123.81 322.06,123.81C322.06,123.81 322.28,123.81 322.43,123.81C322.69,123.81 323.09,123.81 323.46,123.81C323.89,123.81 324.39,123.81 324.85,123.81C325.32,123.81 325.8,123.81 326.25,123.81C326.66,123.81 327.06,123.81 327.42,123.81C327.72,123.81 328.01,123.81 328.25,123.81C328.44,123.81 328.62,123.82 328.76,123.82C328.86,123.82 328.96,123.82 329.03,123.82C329.08,123.82 329.12,123.82 329.16,123.82C329.18,123.82 329.21,123.82 329.22,123.82C329.23,123.82 329.24,123.82 329.24,123.82C329.24,123.82 329.24,123.82 329.24,123.82C329.24,123.82 329.25,123.82 329.25,123.82C329.25,123.82 329.25,123.82 329.25,123.82C329.25,123.82 329.25,123.82 329.25,123.82C329.25,123.82 329.25,123.82 329.25,123.82C329.25,123.82 329.25,123.82 329.25,123.82C329.25,123.82 329.25,123.82 329.25,123.82C329.25,123.82 329.25,123.82 329.25,123.82C329.25,123.82 329.25,123.82 329.25,123.82C329.25,123.82 329.25,123.82 329.25,123.82C329.25,123.82 329.25,123.82 329.25,123.82C329.25,123.82 329.25,123.82 329.25,123.82C329.25,123.82 329.25,123.82 329.25,123.82C329.25,123.82 329.25,123.82 329.25,123.82C329.25,123.82 329.25,123.83 329.25,123.83C329.25,123.83 329.25,123.83 329.25,123.83C329.25,123.83 329.25,123.83 329.25,123.83C329.25,123.83 329.25,123.83 329.25,123.83C329.25,123.83 329.25,123.83 329.25,123.83C329.25,123.83 329.25,123.83 329.25,123.83C329.25,123.83 329.25,123.83 329.25,123.83C329.25,123.83 329.25,123.83 329.25,123.83C329.25,123.83 329.25,123.83 329.25,123.83C329.25,123.83 329.25,123.83 329.25,123.83C329.25,123.83 329.25,123.83 329.25,123.83C329.25,123.83 329.25,123.83 329.25,123.83C329.25,123.83 329.25,123.83 329.25,123.83C329.25,123.83 329.24,123.83 329.24,123.83C329.24,123.83 329.24,123.83 329.24,123.83C329.24,123.83 329.23,123.83 329.22,123.83C329.21,123.83 329.18,123.83 329.16,123.83C329.12,123.83 329.08,123.83 329.02,123.83C328.94,123.83 328.84,123.84 328.73,123.84C328.58,123.84 328.39,123.84 328.19,123.84C327.94,123.84 327.65,123.84 327.34,123.84C326.97,123.84 326.56,123.84 326.14,123.84C325.69,123.84 325.2,123.84 324.73,123.84C324.27,123.84 323.77,123.84 323.35,123.84C323,123.84 322.61,123.84 322.37,123.84C322.23,123.84 322.04,123.84 322.04,123.84C322.04,123.84 322.28,123.84 322.44,123.84C322.69,123.84 323.06,123.84 323.39,123.84C323.74,123.84 324.16,123.84 324.48,123.84C324.74,123.84 325.19,123.84 325.19,123.84C325.19,123.84 325.15,123.84 325.11,123.84C324.95,123.84 324.38,123.84 323.92,123.84C323.27,123.84 322.42,123.84 321.56,123.84C320.53,123.84 319.35,123.84 318.16,123.84C316.85,123.84 315.43,123.84 314.01,123.84C312.51,123.84 310.96,123.84 309.4,123.84C307.79,123.84 306.14,123.85 304.48,123.85C302.78,123.85 301.05,123.85 299.32,123.85C297.58,123.85 295.78,123.85 294.08,123.85C292.46,123.85 290.77,123.85 289.33,123.85C288.14,123.85 286.74,123.85 286.06,123.85C285.75,123.85 285.38,123.85 285.38,123.85C285.38,123.85 286.92,123.85 287.93,123.85C289.42,123.85 291.49,123.85 293.48,123.85C295.78,123.85 298.42,123.85 300.94,123.85C303.54,123.85 306.29,123.85 308.85,123.85C311.27,123.85 313.7,123.85 315.89,123.85C317.81,123.85 319.67,123.85 321.3,123.85C322.64,123.85 323.9,123.85 324.97,123.85Q325.79,123.85 327.16,123.85L329.25,123.85" style="vector-effect: none; stroke-width: 2px; stroke: rgb(247, 184, 54); stroke-opacity: 1; fill: rgb(247, 184, 54); fill-opacity: 0.5;"/><path class="meanline" d="M322.8327331542969,123.84H329.25" style="fill: none; vector-effect: none; stroke-width: 2px; stroke-dasharray: 4px, 2px; stroke: rgb(247, 184, 54); stroke-opacity: 1;"/></g><g class="trace violins" style="opacity: 0.6;"><path class="violin" d="M366.97,108.16L365.37,108.16Q364.5,108.16 363.99,108.16C363.37,108.16 362.66,108.16 361.93,108.16C361.1,108.16 360.18,108.16 359.26,108.16C358.28,108.16 357.23,108.16 356.23,108.16C355.24,108.16 354.22,108.16 353.28,108.16C352.42,108.16 351.58,108.16 350.82,108.16C350.16,108.16 349.56,108.16 348.99,108.16C348.49,108.16 348.05,108.16 347.57,108.16C347.06,108.16 346.58,108.16 346.02,108.16C345.35,108.16 344.62,108.16 343.82,108.16C342.87,108.16 341.79,108.16 340.68,108.16C339.44,108.16 338.08,108.16 336.74,108.16C335.34,108.16 333.86,108.16 332.45,108.16C331.08,108.16 329.67,108.16 328.39,108.16C327.24,108.16 326.07,108.16 325.12,108.16C324.39,108.16 323.39,108.16 323.18,108.16C323.14,108.16 323.11,108.16 323.11,108.16C323.11,108.16 324.45,108.16 325.31,108.16C326.55,108.16 328.19,108.16 329.82,108.16C331.76,108.16 333.98,108.17 336.17,108.17C338.51,108.17 341.02,108.17 343.42,108.17C345.79,108.17 348.23,108.17 350.48,108.17C352.55,108.17 354.59,108.17 356.43,108.17C358.01,108.17 359.53,108.17 360.85,108.17Q361.92,108.17 363.75,108.17L366.97,108.17" style="vector-effect: none; stroke-width: 2px; stroke: rgb(247, 184, 54); stroke-opacity: 1; fill: rgb(247, 184, 54); fill-opacity: 0.5;"/><path class="meanline" d="M323.1099853515625,108.16H366.97" style="fill: none; vector-effect: none; stroke-width: 2px; stroke-dasharray: 4px, 2px; stroke: rgb(247, 184, 54); stroke-opacity: 1;"/></g><g class="trace violins" style="opacity: 0.6;"><path class="violin" d="M404.7,85.25L403.43,85.25Q402.67,85.25 402.22,85.25C401.65,85.25 401,85.25 400.3,85.25C399.46,85.25 398.5,85.25 397.51,85.25C396.38,85.25 395.13,85.25 393.87,85.25C392.5,85.25 391.04,85.25 389.6,85.25C388.13,85.25 386.6,85.25 385.15,85.25C383.77,85.25 382.36,85.25 381.1,85.25C379.99,85.25 378.89,85.25 377.97,85.25C377.24,85.25 376.56,85.25 376.02,85.25C375.64,85.25 375.34,85.25 375.06,85.25C374.83,85.25 374.68,85.25 374.45,85.25C374.13,85.25 373.77,85.25 373.33,85.25C372.71,85.25 371.91,85.25 371.09,85.25C370.08,85.25 368.88,85.25 367.73,85.25C366.53,85.25 365.17,85.25 364.03,85.25C363.05,85.25 361.83,85.24 361.3,85.25C361.08,85.25 360.84,85.26 360.84,85.26C360.84,85.27 362.35,85.26 363.34,85.26C364.78,85.26 366.75,85.26 368.65,85.26C370.86,85.26 373.38,85.26 375.8,85.26C378.31,85.26 380.97,85.26 383.46,85.26C385.84,85.26 388.24,85.26 390.43,85.26C392.38,85.26 394.28,85.26 395.96,85.26C397.36,85.26 398.69,85.26 399.82,85.26Q400.71,85.26 402.22,85.26L404.7,85.26" style="vector-effect: none; stroke-width: 2px; stroke: rgb(247, 184, 54); stroke-opacity: 1; fill: rgb(247, 184, 54); fill-opacity: 0.5;"/><path class="meanline" d="M382.7698974609375,85.25H404.7" style="fill: none; vector-effect: none; stroke-width: 2px; stroke-dasharray: 4px, 2px; stroke: rgb(247, 184, 54); stroke-opacity: 1;"/></g><g class="trace violins" style="opacity: 0.6;"><path class="violin" d="M65.16,274.03L64.3,274.03Q63.85,274.47 63.58,274.68C63.28,274.91 62.92,275.12 62.56,275.33C62.17,275.56 61.73,275.77 61.32,275.99C60.91,276.21 60.47,276.41 60.09,276.64C59.75,276.85 59.38,277.05 59.15,277.29C58.97,277.49 58.78,277.72 58.77,277.94C58.76,278.15 58.9,278.39 59.06,278.59C59.26,278.84 59.62,279.03 59.95,279.24C60.32,279.47 60.75,279.67 61.16,279.89C61.57,280.11 62.01,280.32 62.41,280.55C62.78,280.76 63.16,280.97 63.47,281.2C63.75,281.41 64.01,281.62 64.22,281.85C64.41,282.06 64.57,282.27 64.7,282.5C64.82,282.71 64.9,282.93 64.96,283.15C65.02,283.36 65.05,283.58 65.08,283.8C65.11,284.02 65.12,284.23 65.13,284.45C65.14,284.67 65.14,284.89 65.15,285.11C65.15,285.33 65.16,285.54 65.16,285.76C65.16,285.98 65.16,286.19 65.16,286.41C65.16,286.63 65.16,286.84 65.16,287.06C65.16,287.28 65.16,287.49 65.16,287.71C65.16,287.93 65.15,288.14 65.14,288.36C65.13,288.58 65.12,288.8 65.09,289.02C65.06,289.24 65.03,289.46 64.96,289.67C64.89,289.89 64.8,290.11 64.67,290.32C64.52,290.55 64.33,290.77 64.09,290.97C63.81,291.21 63.45,291.42 63.06,291.62C62.59,291.86 62.03,292.07 61.43,292.27C60.73,292.51 59.94,292.71 59.13,292.92C58.22,293.15 57.23,293.37 56.23,293.58C55.16,293.81 54.03,294.02 52.9,294.23C51.73,294.45 50.53,294.67 49.32,294.88C48.08,295.1 46.83,295.32 45.54,295.53C44.18,295.75 42.81,295.97 41.37,296.18C39.84,296.4 38.24,296.62 36.62,296.83C34.92,297.05 33.12,297.26 31.38,297.48C29.67,297.7 27.84,297.9 26.27,298.14C24.91,298.34 23.37,298.48 22.48,298.79C21.95,298.97 21.28,299.25 21.3,299.44C21.33,299.69 22.6,299.9 23.51,300.09C24.91,300.38 26.99,300.54 28.95,300.74C31.26,300.98 33.95,301.18 36.51,301.39C39.17,301.61 42,301.83 44.62,302.05C47.1,302.26 49.6,302.47 51.84,302.7C53.81,302.9 55.72,303.11 57.37,303.35Q58.72,303.55 61.05,304L65.16,304" style="vector-effect: none; stroke-width: 2px; stroke: rgb(122, 4, 2); stroke-opacity: 1; fill: rgb(122, 4, 2); fill-opacity: 0.5;"/><path class="meanline" d="M38.80095291137695,296.54H65.16" style="fill: none; vector-effect: none; stroke-width: 2px; stroke-dasharray: 4px, 2px; stroke: rgb(122, 4, 2); stroke-opacity: 1;"/></g><g class="trace violins" style="opacity: 0.6;"><path class="violin" d="M102.89,268.61L99.42,268.61Q97.47,268.78 96.34,268.85C94.95,268.94 93.36,269.01 91.71,269.09C89.81,269.18 87.7,269.25 85.58,269.33C83.3,269.41 80.84,269.5 78.47,269.58C76.11,269.66 73.65,269.74 71.39,269.82C69.32,269.9 67.23,269.97 65.45,270.06C64,270.13 62.56,270.2 61.52,270.3C60.83,270.37 59.9,270.37 59.8,270.54C59.76,270.61 59.81,270.71 59.89,270.78C60.04,270.92 60.58,270.94 60.92,271.02C61.26,271.1 61.71,271.15 61.94,271.26C62.08,271.33 62.24,271.43 62.23,271.5C62.21,271.6 61.79,271.68 61.51,271.75C61.13,271.85 60.57,271.91 60.14,271.99C59.75,272.07 59.05,272.12 59.03,272.23C59.02,272.3 59.19,272.4 59.38,272.47C59.85,272.64 61.06,272.64 62.13,272.71C63.61,272.81 65.55,272.88 67.46,272.95C69.68,273.04 72.2,273.11 74.64,273.19C77.17,273.27 79.86,273.35 82.38,273.43C84.78,273.51 87.21,273.58 89.4,273.67C91.33,273.75 93.21,273.83 94.86,273.92Q96.22,273.99 98.58,274.16L102.89,274.16" style="vector-effect: none; stroke-width: 2px; stroke: rgb(122, 4, 2); stroke-opacity: 1; fill: rgb(122, 4, 2); fill-opacity: 0.5;"/><path class="meanline" d="M62.20627212524414,271.44H102.89" style="fill: none; vector-effect: none; stroke-width: 2px; stroke-dasharray: 4px, 2px; stroke: rgb(122, 4, 2); stroke-opacity: 1;"/></g><g class="trace violins" style="opacity: 0.6;"><path class="violin" d="M140.62,240.86L139.04,240.86Q138.09,240.98 137.53,241.03C136.82,241.1 135.98,241.15 135.1,241.2C134.05,241.26 132.86,241.32 131.63,241.37C130.23,241.43 128.7,241.49 127.15,241.54C125.49,241.6 123.72,241.65 121.97,241.71C120.18,241.77 118.33,241.82 116.54,241.88C114.79,241.94 113.02,241.99 111.34,242.05C109.75,242.11 108.19,242.16 106.72,242.22C105.38,242.28 104.08,242.34 102.88,242.4C101.82,242.46 100.78,242.51 99.87,242.57C99.11,242.62 98.36,242.67 97.79,242.74C97.38,242.79 96.83,242.79 96.75,242.91C96.72,242.96 96.73,243.03 96.78,243.08C96.89,243.19 97.37,243.2 97.73,243.25C98.18,243.32 98.74,243.37 99.28,243.42C99.88,243.48 100.5,243.54 101.16,243.59C101.88,243.65 102.61,243.71 103.41,243.76C104.32,243.82 105.29,243.88 106.35,243.93C107.58,243.99 108.94,244.05 110.36,244.1C111.97,244.16 113.73,244.21 115.5,244.27C117.37,244.33 119.37,244.38 121.3,244.44C123.21,244.5 125.19,244.55 127.02,244.61C128.72,244.66 130.41,244.72 131.92,244.78C133.23,244.83 134.49,244.89 135.58,244.95Q136.47,245 137.99,245.12L140.62,245.12" style="vector-effect: none; stroke-width: 2px; stroke: rgb(122, 4, 2); stroke-opacity: 1; fill: rgb(122, 4, 2); fill-opacity: 0.5;"/><path class="meanline" d="M96.7705078125,243.07H140.62" style="fill: none; vector-effect: none; stroke-width: 2px; stroke-dasharray: 4px, 2px; stroke: rgb(122, 4, 2); stroke-opacity: 1;"/></g><g class="trace violins" style="opacity: 0.6;"><path class="violin" d="M178.34,214.02L177.05,214.02Q176.29,214.03 175.83,214.04C175.25,214.05 174.57,214.06 173.84,214.07C172.96,214.08 171.97,214.08 170.93,214.09C169.73,214.1 168.41,214.1 167.06,214.11C165.58,214.12 163.99,214.12 162.42,214.13C160.8,214.14 159.09,214.14 157.48,214.15C155.93,214.16 154.34,214.16 152.92,214.17C151.68,214.18 150.43,214.19 149.43,214.2C148.67,214.21 147.91,214.21 147.43,214.22C147.15,214.23 146.87,214.22 146.78,214.24C146.76,214.25 146.76,214.25 146.74,214.26C146.67,214.28 146.48,214.27 146.27,214.28C145.87,214.29 145.2,214.29 144.54,214.3C143.66,214.31 142.53,214.32 141.46,214.33C140.3,214.34 138.96,214.34 137.83,214.35C136.84,214.36 135.62,214.36 135.04,214.37C134.78,214.38 134.48,214.38 134.48,214.39C134.48,214.4 135.96,214.4 136.94,214.41C138.38,214.42 140.35,214.42 142.26,214.43C144.48,214.44 147.03,214.44 149.48,214.45C152.02,214.46 154.7,214.47 157.22,214.48C159.61,214.49 162.03,214.49 164.23,214.5C166.18,214.51 168.08,214.51 169.76,214.52C171.16,214.53 172.48,214.53 173.6,214.54Q174.48,214.55 175.96,214.56L178.34,214.56" style="vector-effect: none; stroke-width: 2px; stroke: rgb(122, 4, 2); stroke-opacity: 1; fill: rgb(122, 4, 2); fill-opacity: 0.5;"/><path class="meanline" d="M142.53607177734375,214.32H178.34" style="fill: none; vector-effect: none; stroke-width: 2px; stroke-dasharray: 4px, 2px; stroke: rgb(122, 4, 2); stroke-opacity: 1;"/></g><g class="trace violins" style="opacity: 0.6;"><path class="violin" d="M216.07,183.3L213.38,183.3Q211.91,183.33 211.06,183.34C210.02,183.36 208.84,183.37 207.61,183.39C206.2,183.41 204.64,183.43 203.08,183.44C201.43,183.46 199.65,183.46 197.96,183.48C196.31,183.49 194.58,183.51 193.07,183.53C191.76,183.55 190.4,183.56 189.39,183.58C188.68,183.59 187.6,183.57 187.59,183.62C187.59,183.63 187.65,183.66 187.72,183.67C187.93,183.71 188.62,183.7 189.06,183.72C189.48,183.73 190.29,183.73 190.29,183.76C190.29,183.77 190.18,183.8 190.07,183.81C189.69,183.86 188.55,183.85 187.6,183.86C186.32,183.88 184.65,183.89 183.09,183.9C181.39,183.92 179.45,183.93 177.78,183.95C176.3,183.97 174.59,183.98 173.57,184C172.99,184.01 172.21,184.03 172.21,184.04C172.21,184.06 173.6,184.08 174.55,184.09C176.04,184.11 178.21,184.13 180.26,184.14C182.65,184.16 185.4,184.17 188.02,184.18C190.7,184.2 193.53,184.21 196.14,184.23C198.58,184.25 201.03,184.26 203.23,184.28C205.14,184.29 206.97,184.3 208.57,184.32Q209.87,184.33 212.1,184.37L216.07,184.37" style="vector-effect: none; stroke-width: 2px; stroke: rgb(122, 4, 2); stroke-opacity: 1; fill: rgb(122, 4, 2); fill-opacity: 0.5;"/><path class="meanline" d="M185.84022521972656,183.88H216.07" style="fill: none; vector-effect: none; stroke-width: 2px; stroke-dasharray: 4px, 2px; stroke: rgb(122, 4, 2); stroke-opacity: 1;"/></g><g class="trace violins" style="opacity: 0.6;"><path class="violin" d="M253.79,147.95L252.94,147.95Q252.49,148.06 252.23,148.11C251.93,148.17 251.58,148.22 251.23,148.27C250.84,148.33 250.42,148.38 250.01,148.43C249.6,148.48 249.17,148.53 248.78,148.59C248.43,148.64 248.07,148.69 247.8,148.75C247.6,148.8 247.35,148.83 247.29,148.91C247.25,148.95 247.26,149.02 247.28,149.07C247.31,149.14 247.47,149.17 247.55,149.23C247.61,149.28 247.72,149.34 247.71,149.39C247.7,149.46 247.48,149.5 247.31,149.55C247.01,149.63 246.53,149.66 246.06,149.71C245.45,149.77 244.71,149.82 243.96,149.87C243.1,149.93 242.14,149.98 241.18,150.03C240.15,150.09 239.07,150.14 237.98,150.19C236.83,150.24 235.66,150.3 234.44,150.35C233.14,150.41 231.8,150.46 230.4,150.51C228.88,150.57 227.27,150.62 225.64,150.67C223.9,150.73 222.05,150.78 220.27,150.83C218.5,150.88 216.62,150.93 214.99,150.99C213.59,151.04 212,151.07 211.08,151.15C210.58,151.19 209.93,151.26 209.93,151.31C209.93,151.38 211.36,151.42 212.33,151.47C213.82,151.54 215.98,151.58 218.03,151.63C220.42,151.69 223.18,151.74 225.8,151.79C228.49,151.84 231.34,151.89 233.97,151.95C236.43,152 238.91,152.05 241.12,152.11C243.04,152.16 244.89,152.21 246.49,152.27Q247.78,152.32 250,152.43L253.79,152.43" style="vector-effect: none; stroke-width: 2px; stroke: rgb(122, 4, 2); stroke-opacity: 1; fill: rgb(122, 4, 2); fill-opacity: 0.5;"/><path class="meanline" d="M218.4810791015625,150.88H253.79" style="fill: none; vector-effect: none; stroke-width: 2px; stroke-dasharray: 4px, 2px; stroke: rgb(122, 4, 2); stroke-opacity: 1;"/></g><g class="trace violins" style="opacity: 0.6;"><path class="violin" d="M291.52,115.11L290.57,115.11Q290.07,115.14 289.79,115.15C289.45,115.16 289.07,115.18 288.68,115.19C288.25,115.2 287.78,115.22 287.33,115.23C286.88,115.24 286.4,115.26 285.98,115.27C285.61,115.28 285.21,115.29 284.94,115.31C284.76,115.32 284.49,115.33 284.49,115.35C284.49,115.36 284.65,115.38 284.77,115.39C284.99,115.41 285.36,115.42 285.7,115.43C286.1,115.44 286.57,115.46 287.01,115.47C287.46,115.48 287.94,115.5 288.38,115.51C288.79,115.52 289.2,115.54 289.56,115.55C289.87,115.56 290.17,115.57 290.42,115.59C290.62,115.6 290.8,115.62 290.96,115.64C291.08,115.65 291.19,115.66 291.27,115.68C291.33,115.69 291.38,115.7 291.42,115.72C291.45,115.73 291.46,115.75 291.48,115.76C291.49,115.77 291.5,115.79 291.51,115.8C291.52,115.81 291.52,115.83 291.52,115.84C291.52,115.85 291.52,115.87 291.52,115.88C291.52,115.89 291.52,115.91 291.52,115.92C291.52,115.93 291.52,115.95 291.51,115.96C291.5,115.97 291.49,115.99 291.48,116C291.46,116.02 291.43,116.03 291.4,116.04C291.35,116.06 291.29,116.07 291.21,116.08C291.1,116.1 290.95,116.11 290.79,116.12C290.56,116.14 290.28,116.15 289.96,116.16C289.54,116.18 289.04,116.19 288.49,116.2C287.81,116.22 287.02,116.23 286.18,116.24C285.18,116.25 284.07,116.27 282.91,116.28C281.6,116.29 280.18,116.31 278.74,116.32C277.19,116.33 275.54,116.35 273.9,116.36C272.19,116.37 270.42,116.39 268.68,116.4C266.93,116.41 265.14,116.43 263.4,116.44C261.69,116.45 259.96,116.47 258.31,116.48C256.74,116.49 255.16,116.51 253.72,116.52C252.43,116.53 251.12,116.54 250.05,116.56C249.22,116.57 248.18,116.56 247.85,116.6C247.75,116.61 247.66,116.63 247.66,116.64C247.66,116.68 248.95,116.67 249.78,116.68C250.96,116.7 252.53,116.71 254.07,116.72C255.88,116.73 257.95,116.75 259.98,116.76C262.14,116.77 264.44,116.79 266.65,116.8C268.84,116.81 271.09,116.83 273.2,116.84C275.18,116.85 277.14,116.87 278.95,116.88C280.56,116.89 282.11,116.91 283.51,116.92C284.69,116.93 285.81,116.94 286.79,116.96C287.58,116.97 288.31,116.98 288.94,117Q289.42,117.01 290.23,117.04L291.52,117.04" style="vector-effect: none; stroke-width: 2px; stroke: rgb(122, 4, 2); stroke-opacity: 1; fill: rgb(122, 4, 2); fill-opacity: 0.5;"/><path class="meanline" d="M258.39337158203125,116.48H291.52" style="fill: none; vector-effect: none; stroke-width: 2px; stroke-dasharray: 4px, 2px; stroke: rgb(122, 4, 2); stroke-opacity: 1;"/></g><g class="trace violins" style="opacity: 0.6;"><path class="violin" d="M329.25,81.59L328.33,81.59Q327.84,81.6 327.57,81.61C327.24,81.62 326.87,81.63 326.5,81.64C326.09,81.65 325.63,81.65 325.2,81.66C324.76,81.67 324.3,81.68 323.89,81.69C323.53,81.7 323.15,81.7 322.88,81.71C322.7,81.72 322.44,81.73 322.44,81.74C322.44,81.75 322.59,81.75 322.71,81.76C322.92,81.77 323.28,81.78 323.6,81.79C323.99,81.8 324.44,81.8 324.87,81.81C325.31,81.82 325.77,81.83 326.19,81.84C326.58,81.85 326.98,81.85 327.33,81.86C327.63,81.87 327.92,81.88 328.17,81.89C328.37,81.9 328.55,81.9 328.7,81.91C328.81,81.92 328.92,81.93 329,81.94C329.06,81.95 329.1,81.95 329.14,81.96C329.16,81.97 329.2,81.98 329.2,81.99C329.2,82 329.2,82 329.19,82.01C329.18,82.02 329.14,82.03 329.11,82.04C329.06,82.05 328.98,82.05 328.9,82.06C328.78,82.07 328.62,82.08 328.44,82.09C328.19,82.1 327.88,82.1 327.54,82.11C327.1,82.12 326.58,82.13 326.01,82.14C325.31,82.15 324.5,82.15 323.65,82.16C322.66,82.17 321.55,82.18 320.42,82.19C319.17,82.2 317.82,82.2 316.46,82.21C315.02,82.22 313.51,82.23 312.02,82.24C310.5,82.25 308.95,82.25 307.41,82.26C305.87,82.27 304.31,82.28 302.77,82.29C301.23,82.3 299.69,82.3 298.16,82.31C296.64,82.32 295.11,82.33 293.63,82.34C292.22,82.35 290.77,82.35 289.5,82.36C288.41,82.37 287.22,82.38 286.46,82.39C286.01,82.4 285.38,82.4 285.38,82.41C285.38,82.42 286.29,82.43 286.93,82.44C288,82.45 289.62,82.45 291.18,82.46C293.08,82.47 295.34,82.48 297.53,82.49C299.89,82.5 302.45,82.5 304.88,82.51C307.28,82.52 309.75,82.53 312.03,82.54C314.13,82.55 316.22,82.55 318.09,82.56C319.71,82.57 321.27,82.58 322.63,82.59C323.74,82.6 324.77,82.6 325.65,82.61Q326.33,82.62 327.47,82.64L329.25,82.64" style="vector-effect: none; stroke-width: 2px; stroke: rgb(122, 4, 2); stroke-opacity: 1; fill: rgb(122, 4, 2); fill-opacity: 0.5;"/><path class="meanline" d="M296.512451171875,82.32H329.25" style="fill: none; vector-effect: none; stroke-width: 2px; stroke-dasharray: 4px, 2px; stroke: rgb(122, 4, 2); stroke-opacity: 1;"/></g><g class="trace violins" style="opacity: 0.6;"><path class="violin" d="M366.97,48.84L366.11,48.84Q365.65,48.85 365.39,48.85C365.08,48.85 364.73,48.86 364.38,48.86C363.99,48.86 363.56,48.87 363.15,48.87C362.74,48.87 362.3,48.88 361.92,48.88C361.59,48.88 361.23,48.89 360.98,48.89C360.82,48.89 360.58,48.9 360.58,48.9C360.58,48.9 360.73,48.91 360.84,48.91C361.03,48.91 361.36,48.92 361.64,48.92C361.96,48.93 362.34,48.93 362.67,48.94C362.97,48.94 363.32,48.95 363.53,48.95C363.66,48.95 363.83,48.96 363.83,48.96C363.83,48.96 363.51,48.97 363.28,48.97C362.89,48.97 362.3,48.98 361.71,48.98C360.96,48.98 360.06,48.99 359.14,48.99C358.08,48.99 356.91,49 355.73,49C354.44,49 353.07,49.01 351.69,49.01C350.24,49.01 348.74,49.02 347.22,49.02C345.64,49.02 344.01,49.03 342.37,49.03C340.67,49.03 338.92,49.04 337.18,49.04C335.42,49.04 333.59,49.05 331.86,49.05C330.22,49.05 328.5,49.06 327.05,49.06C325.86,49.06 324.47,49.06 323.79,49.07C323.48,49.07 323.11,49.08 323.11,49.08C323.11,49.09 324.62,49.09 325.61,49.09C327.07,49.09 329.09,49.1 331.03,49.1C333.29,49.1 335.87,49.11 338.35,49.11C340.91,49.11 343.63,49.11 346.16,49.12C348.56,49.12 350.98,49.13 353.18,49.14C355.12,49.14 357.01,49.15 358.67,49.15C360.04,49.15 361.33,49.16 362.43,49.16Q363.29,49.16 364.72,49.17L366.97,49.17" style="vector-effect: none; stroke-width: 2px; stroke: rgb(122, 4, 2); stroke-opacity: 1; fill: rgb(122, 4, 2); fill-opacity: 0.5;"/><path class="meanline" d="M332.24932861328125,49.05H366.97" style="fill: none; vector-effect: none; stroke-width: 2px; stroke-dasharray: 4px, 2px; stroke: rgb(122, 4, 2); stroke-opacity: 1;"/></g><g class="trace violins" style="opacity: 0.6;"><path class="violin" d="M404.7,16L402.58,16Q401.35,16.02 400.63,16.02C399.72,16.03 398.67,16.03 397.57,16.03C396.26,16.04 394.8,16.04 393.3,16.05C391.62,16.06 389.8,16.06 387.98,16.07C386.06,16.08 384.02,16.08 382.06,16.09C380.12,16.09 378.12,16.09 376.26,16.1C374.53,16.1 372.8,16.11 371.25,16.12C369.91,16.13 368.61,16.13 367.51,16.14C366.63,16.14 365.81,16.14 365.15,16.15C364.67,16.15 364.25,16.16 363.91,16.17C363.67,16.18 363.48,16.18 363.29,16.19C363.12,16.2 362.98,16.21 362.8,16.21C362.59,16.22 362.36,16.22 362.13,16.22C361.88,16.23 361.57,16.23 361.34,16.24C361.15,16.25 360.84,16.25 360.84,16.26C360.84,16.27 361.05,16.27 361.22,16.28C361.61,16.29 362.37,16.29 363.1,16.29C364.13,16.3 365.45,16.3 366.81,16.31C368.45,16.32 370.36,16.33 372.26,16.33C374.35,16.34 376.62,16.34 378.83,16.34C381.08,16.35 383.43,16.35 385.64,16.36C387.74,16.37 389.86,16.37 391.8,16.38C393.53,16.39 395.22,16.39 396.72,16.4C397.98,16.4 399.17,16.4 400.2,16.41Q401.01,16.41 402.39,16.43L404.7,16.43" style="vector-effect: none; stroke-width: 2px; stroke: rgb(122, 4, 2); stroke-opacity: 1; fill: rgb(122, 4, 2); fill-opacity: 0.5;"/><path class="meanline" d="M362.2098693847656,16.22H404.7" style="fill: none; vector-effect: none; stroke-width: 2px; stroke-dasharray: 4px, 2px; stroke: rgb(122, 4, 2); stroke-opacity: 1;"/></g></g><g class="scatterlayer mlayer"><g class="trace scatter traceee7f9e" style="stroke-miterlimit: 2; opacity: 1;"><g class="fills"/><g class="errorbars"/><g class="lines"><path class="js-line" d="M65.16,271.78L102.89,264.62L140.62,243.88L178.34,216.8" style="vector-effect: none; fill: none; stroke: rgb(48, 18, 59); stroke-opacity: 1; stroke-width: 2px; opacity: 1;"/></g><g class="points"/><g class="text"/></g><g class="trace scatter tracedbaa3c" style="stroke-miterlimit: 2; opacity: 1;"><g class="fills"/><g class="errorbars"/><g class="lines"><path class="js-line" d="M65.16,298.35L102.89,295.03L140.62,289.96L178.34,284.46L216.07,275.41L253.79,264.01L291.52,250.9L329.25,231.86L366.97,215.89L404.7,193.71" style="vector-effect: none; fill: none; stroke: rgb(33, 226, 181); stroke-opacity: 1; stroke-width: 2px; opacity: 1;"/></g><g class="points"/><g class="text"/></g><g class="trace scatter trace38a403" style="stroke-miterlimit: 2; opacity: 1;"><g class="fills"/><g class="errorbars"/><g class="lines"><path class="js-line" d="M65.16,258.76L102.89,242.98L140.62,222.23L178.34,196.7L216.07,174.58L253.79,156.47L291.52,139.82L366.97,108.16L404.7,85.25" style="vector-effect: none; fill: none; stroke: rgb(247, 184, 54); stroke-opacity: 1; stroke-width: 2px; opacity: 1;"/></g><g class="points"/><g class="text"/></g><g class="trace scatter trace8bd78b" style="stroke-miterlimit: 2; opacity: 1;"><g class="fills"/><g class="errorbars"/><g class="lines"><path class="js-line" d="M65.16,295.38L102.89,271.42L140.62,243.06L178.34,214.32L216.07,183.88L253.79,150.87L291.52,116.48L366.97,49.05L404.7,16.22" style="vector-effect: none; fill: none; stroke: rgb(122, 4, 2); stroke-opacity: 1; stroke-width: 2px; opacity: 1;"/></g><g class="points"/><g class="text"/></g></g></g></g><g class="zerolinelayer-above"/><path class="xlines-above crisp" d="M0,0" style="fill: none;"/><path class="ylines-above crisp" d="M0,0" style="fill: none;"/><g class="overlines-above"/><g class="xaxislayer-above"><g class="xtick"><text text-anchor="start" x="0" y="433" transform="translate(145.16,0) rotate(29.999999999999996,0,427)" style="font-family: 'Open Sans', verdana, arial, sans-serif; font-size: 12px; fill: rgb(42, 63, 95); fill-opacity: 1; white-space: pre;">128</text></g><g class="xtick"><text text-anchor="start" x="0" y="433" style="font-family: 'Open Sans', verdana, arial, sans-serif; font-size: 12px; fill: rgb(42, 63, 95); fill-opacity: 1; white-space: pre;" transform="translate(182.89,0) rotate(29.999999999999996,0,427)">256</text></g><g class="xtick"><text text-anchor="start" x="0" y="433" style="font-family: 'Open Sans', verdana, arial, sans-serif; font-size: 12px; fill: rgb(42, 63, 95); fill-opacity: 1; white-space: pre;" transform="translate(220.62,0) rotate(29.999999999999996,0,427)">512</text></g><g class="xtick"><text text-anchor="start" x="0" y="433" style="font-family: 'Open Sans', verdana, arial, sans-serif; font-size: 12px; fill: rgb(42, 63, 95); fill-opacity: 1; white-space: pre;" transform="translate(258.34000000000003,0) rotate(29.999999999999996,0,427)">1,024</text></g><g class="xtick"><text text-anchor="start" x="0" y="433" style="font-family: 'Open Sans', verdana, arial, sans-serif; font-size: 12px; fill: rgb(42, 63, 95); fill-opacity: 1; white-space: pre;" transform="translate(296.07,0) rotate(29.999999999999996,0,427)">2,048</text></g><g class="xtick"><text text-anchor="start" x="0" y="433" style="font-family: 'Open Sans', verdana, arial, sans-serif; font-size: 12px; fill: rgb(42, 63, 95); fill-opacity: 1; white-space: pre;" transform="translate(333.78999999999996,0) rotate(29.999999999999996,0,427)">4,096</text></g><g class="xtick"><text text-anchor="start" x="0" y="433" style="font-family: 'Open Sans', verdana, arial, sans-serif; font-size: 12px; fill: rgb(42, 63, 95); fill-opacity: 1; white-space: pre;" transform="translate(371.52,0) rotate(29.999999999999996,0,427)">8,192</text></g><g class="xtick"><text text-anchor="start" x="0" y="433" style="font-family: 'Open Sans', verdana, arial, sans-serif; font-size: 12px; fill: rgb(42, 63, 95); fill-opacity: 1; white-space: pre;" transform="translate(409.25,0) rotate(29.999999999999996,0,427)">16,384</text></g><g class="xtick"><text text-anchor="start" x="0" y="433" style="font-family: 'Open Sans', verdana, arial, sans-serif; font-size: 12px; fill: rgb(42, 63, 95); fill-opacity: 1; white-space: pre;" transform="translate(446.97,0) rotate(29.999999999999996,0,427)">32,768</text></g><g class="xtick"><text text-anchor="start" x="0" y="433" style="font-family: 'Open Sans', verdana, arial, sans-serif; font-size: 12px; fill: rgb(42, 63, 95); fill-opacity: 1; white-space: pre;" transform="translate(484.7,0) rotate(29.999999999999996,0,427)">65,536</text></g></g><g class="yaxislayer-above"><g class="ytick"><text text-anchor="end" x="79" y="4.199999999999999" transform="translate(0,405.66)" style="font-family: 'Open Sans', verdana, arial, sans-serif; font-size: 12px; fill: rgb(42, 63, 95); fill-opacity: 1; white-space: pre;">0.1</text></g><g class="ytick"><text text-anchor="end" x="79" y="4.199999999999999" style="font-family: 'Open Sans', verdana, arial, sans-serif; font-size: 12px; fill: rgb(42, 63, 95); fill-opacity: 1; white-space: pre;" transform="translate(0,354.53)">1</text></g><g class="ytick"><text text-anchor="end" x="79" y="4.199999999999999" style="font-family: 'Open Sans', verdana, arial, sans-serif; font-size: 12px; fill: rgb(42, 63, 95); fill-opacity: 1; white-space: pre;" transform="translate(0,303.40999999999997)">10</text></g><g class="ytick"><text text-anchor="end" x="79" y="4.199999999999999" style="font-family: 'Open Sans', verdana, arial, sans-serif; font-size: 12px; fill: rgb(42, 63, 95); fill-opacity: 1; white-space: pre;" transform="translate(0,252.28)">100</text></g><g class="ytick"><text text-anchor="end" x="79" y="4.199999999999999" style="font-family: 'Open Sans', verdana, arial, sans-serif; font-size: 12px; fill: rgb(42, 63, 95); fill-opacity: 1; white-space: pre;" transform="translate(0,201.15)">1000</text></g><g class="ytick"><text text-anchor="end" x="79" y="4.199999999999999" style="font-family: 'Open Sans', verdana, arial, sans-serif; font-size: 12px; fill: rgb(42, 63, 95); fill-opacity: 1; white-space: pre;" transform="translate(0,150.02)">10000</text></g></g><g class="overaxes-above"/></g></g><g class="polarlayer"/><g class="smithlayer"/><g class="ternarylayer"/><g class="geolayer"/><g class="funnelarealayer"/><g class="pielayer"/><g class="iciclelayer"/><g class="treemaplayer"/><g class="sunburstlayer"/><g class="glimages"/><defs id="topdefs-7728fd"><g class="clips"/><clipPath id="legend7728fd"><rect width="173" height="116" x="0" y="0"/></clipPath></defs><g class="layer-above"><g class="imagelayer"/><g class="shapelayer"/></g><g class="infolayer"><g class="legend" pointer-events="all" transform="translate(514.52,100)"><rect class="bg" shape-rendering="crispEdges" style="stroke: rgb(68, 68, 68); stroke-opacity: 1; fill: rgb(255, 255, 255); fill-opacity: 1; stroke-width: 0px;" width="173" height="116" x="0" y="0"/><g class="scrollbox" transform="" clip-path="url(#legend7728fd)"><g class="groups" transform=""><g class="traces" transform="translate(0,14.5)" style="opacity: 1;"><text class="legendtext" text-anchor="start" x="40" y="4.680000000000001" style="font-family: 'Open Sans', verdana, arial, sans-serif; font-size: 12px; fill: rgb(42, 63, 95); fill-opacity: 1; white-space: pre;">cuda_nvidia_baseline</text><g class="layers" style="opacity: 1;"><g class="legendfill"/><g class="legendlines"><path class="js-line" d="M5,0h30" style="fill: none; stroke: rgb(48, 18, 59); stroke-opacity: 1; stroke-width: 2px;"/></g><g class="legendsymbols"><g class="legendpoints"/></g></g><rect class="legendtoggle" x="0" y="-9.5" width="167.78125" height="19" style="fill: rgb(0, 0, 0); fill-opacity: 0;"/></g></g><g class="groups" transform="translate(0,10)"><g class="traces" transform="translate(0,33.5)" style="opacity: 1;"><text class="legendtext" text-anchor="start" x="40" y="4.680000000000001" style="font-family: 'Open Sans', verdana, arial, sans-serif; font-size: 12px; fill: rgb(42, 63, 95); fill-opacity: 1; white-space: pre;">cuda_optimized</text><g class="layers" style="opacity: 1;"><g class="legendfill"/><g class="legendlines"><path class="js-line" d="M5,0h30" style="fill: none; stroke: rgb(33, 226, 181); stroke-opacity: 1; stroke-width: 2px;"/></g><g class="legendsymbols"><g class="legendpoints"/></g></g><rect class="legendtoggle" x="0" y="-9.5" width="167.78125" height="19" style="fill: rgb(0, 0, 0); fill-opacity: 0;"/></g></g><g class="groups" transform="translate(0,20)"><g class="traces" transform="translate(0,52.5)" style="opacity: 1;"><text class="legendtext" text-anchor="start" x="40" y="4.680000000000001" style="font-family: 'Open Sans', verdana, arial, sans-serif; font-size: 12px; fill: rgb(42, 63, 95); fill-opacity: 1; white-space: pre;">cuda_naive</text><g class="layers" style="opacity: 1;"><g class="legendfill"/><g class="legendlines"><path class="js-line" d="M5,0h30" style="fill: none; stroke: rgb(247, 184, 54); stroke-opacity: 1; stroke-width: 2px;"/></g><g class="legendsymbols"><g class="legendpoints"/></g></g><rect class="legendtoggle" x="0" y="-9.5" width="167.78125" height="19" style="fill: rgb(0, 0, 0); fill-opacity: 0;"/></g></g><g class="groups" transform="translate(0,30)"><g class="traces" transform="translate(0,71.5)" style="opacity: 1;"><text class="legendtext" text-anchor="start" x="40" y="4.680000000000001" style="font-family: 'Open Sans', verdana, arial, sans-serif; font-size: 12px; fill: rgb(42, 63, 95); fill-opacity: 1; white-space: pre;">cpu_quantlib</text><g class="layers" style="opacity: 1;"><g class="legendfill"/><g class="legendlines"><path class="js-line" d="M5,0h30" style="fill: none; stroke: rgb(122, 4, 2); stroke-opacity: 1; stroke-width: 2px;"/></g><g class="legendsymbols"><g class="legendpoints"/></g></g><rect class="legendtoggle" x="0" y="-9.5" width="167.78125" height="19" style="fill: rgb(0, 0, 0); fill-opacity: 0;"/></g></g></g><rect class="scrollbar" rx="20" ry="3" width="0" height="0" style="fill: rgb(128, 139, 164); fill-opacity: 1;" x="0" y="0"/></g><g class="g-gtitle"/><g class="g-xtitle"><text class="xtitle" x="293" y="480.0939453125" text-anchor="middle" style="opacity: 1; font-family: 'Open Sans', verdana, arial, sans-serif; font-size: 14px; fill: rgb(42, 63, 95); fill-opacity: 1; white-space: pre;">Time Steps (n)</text></g><g class="g-ytitle"><text class="ytitle" transform="rotate(-90,21.4125,260)" x="21.4125" y="260" text-anchor="middle" style="opacity: 1; font-family: 'Open Sans', verdana, arial, sans-serif; font-size: 14px; fill: rgb(42, 63, 95); fill-opacity: 1; white-space: pre;">Mean Execution Time (ms)</text></g></g></svg>